<?xml version="1.0" encoding="UTF-8"?>
<svg xmlns="http://www.w3.org/2000/svg" width="32px" height="32px" viewBox="0 0 32 32" version="1.1">
<g id="surface1">
<path style=" stroke:none;fill-rule:evenodd;fill:rgb(100%,100%,100%);fill-opacity:1;" d="M 8 14.894531 L 8 5.332031 C 8 4.597656 7.402344 4 6.667969 4 C 5.929688 4 5.332031 4.597656 5.332031 5.332031 L 5.332031 14.894531 C 3.78125 15.441406 2.667969 16.925781 2.667969 18.667969 C 2.667969 20.410156 3.78125 21.890625 5.332031 22.4375 L 5.332031 26.667969 C 5.332031 27.402344 5.929688 28 6.667969 28 C 7.402344 28 8 27.402344 8 26.667969 L 8 22.4375 C 9.554688 21.890625 10.667969 20.410156 10.667969 18.667969 C 10.667969 16.925781 9.554688 15.441406 8 14.894531 Z M 6.667969 17.332031 C 5.929688 17.332031 5.332031 17.929688 5.332031 18.667969 C 5.332031 19.402344 5.929688 20 6.667969 20 C 7.402344 20 8 19.402344 8 18.667969 C 8 17.929688 7.402344 17.332031 6.667969 17.332031 Z M 6.667969 17.332031 "/>
<path style=" stroke:none;fill-rule:evenodd;fill:rgb(100%,100%,100%);fill-opacity:1;" d="M 25.332031 28 C 24.597656 28 24 27.402344 24 26.667969 L 24 24 C 24 23.925781 24.007812 23.851562 24.019531 23.777344 C 22.457031 23.234375 21.332031 21.75 21.332031 20 C 21.332031 18.25 22.457031 16.765625 24.019531 16.222656 C 24.007812 16.148438 24 16.074219 24 16 L 24 5.332031 C 24 4.597656 24.597656 4 25.332031 4 C 26.070312 4 26.667969 4.597656 26.667969 5.332031 L 26.667969 16 C 26.667969 16.074219 26.660156 16.148438 26.648438 16.222656 C 28.210938 16.765625 29.332031 18.25 29.332031 20 C 29.332031 21.75 28.210938 23.234375 26.648438 23.777344 C 26.660156 23.851562 26.667969 23.925781 26.667969 24 L 26.667969 26.667969 C 26.667969 27.402344 26.070312 28 25.332031 28 Z M 24 20 C 24 19.261719 24.597656 18.667969 25.332031 18.667969 C 26.070312 18.667969 26.667969 19.261719 26.667969 20 C 26.667969 20.738281 26.070312 21.332031 25.332031 21.332031 C 24.597656 21.332031 24 20.738281 24 20 Z M 24 20 "/>
<path style=" stroke:none;fill-rule:evenodd;fill:rgb(100%,100%,100%);fill-opacity:1;" d="M 12 12 C 12 10.257812 13.113281 8.777344 14.667969 8.226562 L 14.667969 5.332031 C 14.667969 4.597656 15.261719 4 16 4 C 16.738281 4 17.332031 4.597656 17.332031 5.332031 L 17.332031 8.226562 C 18.886719 8.777344 20 10.257812 20 12 C 20 13.75 18.878906 15.234375 17.316406 15.777344 C 17.328125 15.851562 17.332031 15.925781 17.332031 16 L 17.332031 26.667969 C 17.332031 27.402344 16.738281 28 16 28 C 15.261719 28 14.667969 27.402344 14.667969 26.667969 L 14.667969 16 C 14.667969 15.925781 14.671875 15.851562 14.683594 15.777344 C 13.121094 15.234375 12 13.75 12 12 Z M 14.667969 12 C 14.667969 11.261719 15.261719 10.667969 16 10.667969 C 16.738281 10.667969 17.332031 11.261719 17.332031 12 C 17.332031 12.738281 16.738281 13.332031 16 13.332031 C 15.261719 13.332031 14.667969 12.738281 14.667969 12 Z M 14.667969 12 "/>
</g>
</svg>
