<svg width="32" height="32" viewBox="0 0 32 32" fill="none" xmlns="http://www.w3.org/2000/svg">
<g clip-path="url(#clip0_693_7902)">
<path d="M0 15.3333C0 8.1056 0 4.49067 2.24533 2.24533C4.49067 0 8.10667 0 15.3333 0H16.6667C23.8944 0 27.5093 0 29.7547 2.24533C32 4.49067 32 8.10667 32 15.3333V16.6667C32 23.8944 32 27.5093 29.7547 29.7547C27.5093 32 23.8933 32 16.6667 32H15.3333C8.1056 32 4.49067 32 2.24533 29.7547C0 27.5093 0 23.8933 0 16.6667V15.3333Z" fill="#9594B7"/>
<path fill-rule="evenodd" clip-rule="evenodd" d="M8.66649 10H6.33369C5.66702 10 5.53369 10.3136 5.53369 10.6603C5.53369 11.2779 6.32409 14.3435 9.21689 18.3968C11.1444 21.1659 13.8612 22.6667 16.3326 22.6667C17.8164 22.6667 17.9998 22.3328 17.9998 21.76V19.6672C17.9998 19.0005 18.1406 18.8672 18.61 18.8672C18.9566 18.8672 19.5486 19.04 20.9342 20.3744C22.5161 21.9573 22.7764 22.6667 23.666 22.6667H25.9998C26.6665 22.6667 27.0004 22.3328 26.8073 21.6747C26.5972 21.0197 25.842 20.0683 24.8393 18.9408C24.2953 18.2987 23.4804 17.6064 23.2329 17.2597C22.8862 16.8149 22.9854 16.6176 23.2329 16.2219C23.2329 16.2219 26.0756 12.2176 26.3721 10.8576C26.5214 10.3637 26.3721 10 25.666 10H23.3332C22.7401 10 22.466 10.3136 22.3177 10.6603C22.3177 10.6603 21.1316 13.552 19.4505 15.4304C18.9065 15.9744 18.659 16.1483 18.3625 16.1483C18.2142 16.1483 17.9998 15.9744 17.9998 15.4805V10.8576C17.9998 10.2645 17.8281 10 17.3332 10H13.666C13.2958 10 13.0729 10.2752 13.0729 10.5365C13.0729 11.0987 13.9134 11.2288 13.9998 12.8107V16.2464C13.9998 17.0005 13.8644 17.1371 13.5668 17.1371C12.7764 17.1371 10.8521 14.2315 9.71076 10.9077C9.48676 10.2613 9.26276 10 8.66649 10Z" fill="#201F31"/>
</g>
<defs>
<clipPath id="clip0_693_7902">
<rect width="32" height="32" fill="white"/>
</clipPath>
</defs>
</svg>
